<?xml version="1.0" standalone="no"?>
<!DOCTYPE svg PUBLIC "-//W3C//DTD SVG 20010904//EN"
 "http://www.w3.org/TR/2001/REC-SVG-20010904/DTD/svg10.dtd">
<svg version="1.0" xmlns="http://www.w3.org/2000/svg"
 width="260.000000pt" height="260.000000pt" viewBox="0 0 260.000000 260.000000"
 preserveAspectRatio="xMidYMid meet">
<metadata>
Created by potrace 1.11, written by Peter Selinger 2001-2013
</metadata>
<g transform="translate(0.000000,260.000000) scale(0.100000,-0.100000)"
fill="#000000" stroke="none">
<path d="M3 1863 c3 -627 6 -749 20 -808 60 -269 169 -474 346 -658 151 -157
339 -272 548 -336 149 -46 214 -55 383 -55 169 0 234 9 383 55 209 64 397 179
548 336 148 153 247 320 308 520 46 149 55 214 55 383 0 169 -9 234 -55 383
-64 209 -179 397 -336 548 -148 143 -315 244 -504 304 -162 51 -206 57 -527
62 l-302 5 0 -215 0 -215 283 -4 c315 -6 370 -14 516 -83 141 -67 284 -192
365 -318 42 -67 97 -197 117 -277 21 -82 18 -318 -5 -400 -88 -320 -327 -555
-646 -636 -108 -27 -306 -25 -415 5 -317 86 -545 322 -631 651 -16 58 -18 146
-21 778 l-4 712 -215 0 -215 0 4 -737z"/>
<path d="M870 1482 c0 -198 3 -259 16 -303 29 -98 90 -182 176 -239 164 -109
384 -93 530 38 106 96 161 248 138 386 -23 141 -119 268 -247 329 l-68 32
-272 3 -273 3 0 -249z"/>
</g>
</svg>
