<svg viewBox="-60 -60 1232 277" xmlns="http://www.w3.org/2000/svg" fill-rule="evenodd" clip-rule="evenodd" stroke-linejoin="round" stroke-miterlimit="2"><path d="M911.537 56.208v48.92H899.21V58.48c0-14.93-8.931-24.991-22.225-24.991-16.722 0-27.757 11.362-27.757 32.135v39.505h-12.339V22.816h12.339v14.567c6.498-9.74 16.712-15.253 30.19-15.253 19.299 0 32.12 13.794 32.12 34.078M787.35 33.005c13.313 0 24.51 8.597 26.782 24.338h-55.676c2.443-15.74 15.913-24.338 28.895-24.338m24.984 48.024c-5.873 10.567-15.347 14.295-25.803 14.295-13.787 0-27.416-10.717-28.551-28.73h68.644v-4.542c-.82-23.857-17.697-39.922-39.274-39.922-22.068 0-41.388 16.554-41.388 42.192 0 25.481 19.32 41.87 40.569 41.87 17.91 0 31.784-8.66 38.18-25.163h-12.377zM735.698 56.208v47.877h-12.335V58.48c0-14.93-8.927-24.991-22.225-24.991-16.718 0-27.759 11.362-27.759 32.135v38.462h-12.334V2.45h12.334v34.934c6.498-9.74 16.72-15.253 30.19-15.253 19.305 0 32.129 13.794 32.129 34.078M620.433 105.127h-10.87l-22.725-61.413-22.874 61.413h-10.88l-30.348-82.312h13.31l23.045 63.092 22.715-63.092h9.905l22.714 62.927 23.043-62.927h13.312l-30.347 82.312z" fill="#5f6663" fill-rule="nonzero"/><g fill="#5f6663" fill-rule="nonzero"><path d="M448.423 2.448h12.335v102.679h-12.335z"/><path d="M457.156 73.555l-1.364-13.445L497.2 22.815h15.27l-55.314 50.74z"/><path d="M462.745 57.104l11.793-4.542 49.589 52.565h-16.182l-45.2-48.023z"/></g><path d="M426.155 64c0-18.337-13.628-30.837-30.506-30.837-17.048 0-30.677 12.5-30.677 30.836 0 18.501 13.629 31.16 30.677 31.16 16.878 0 30.506-12.659 30.506-31.16m12.004 0c0 24.503-18.818 42.193-42.51 42.193-23.862 0-42.68-17.69-42.68-42.193 0-24.503 18.818-41.869 42.68-41.869 23.692 0 42.51 17.366 42.51 41.87M330.698 64c0-18.337-13.628-30.837-30.506-30.837-17.048 0-30.677 12.5-30.677 30.836 0 18.501 13.629 31.16 30.677 31.16 16.878 0 30.506-12.659 30.506-31.16m12.004 0c0 24.503-18.818 42.193-42.51 42.193-23.862 0-42.68-17.69-42.68-42.193 0-24.503 18.818-41.869 42.68-41.869 23.692 0 42.51 17.366 42.51 41.87M235.242 64.164c0-19.155-13.311-31.159-29.859-31.159-15.094 0-29.859 12.004-29.859 31.16 0 18.983 14.765 30.993 29.86 30.993 16.547 0 29.858-12.01 29.858-30.994m12.004 0c0 25.316-18.66 42.028-39.922 42.028-13.297 0-24.668-5.355-31.8-14.764v13.76h-12.333V2.679h12.333v34.216c7.132-9.41 18.503-14.765 31.8-14.765 21.262 0 39.922 16.712 39.922 42.034" fill="#5f6663" fill-rule="nonzero"/><path d="M61.98 126.494c34.188 0 61.979-27.79 61.979-61.979 0-34.17-27.79-61.979-61.98-61.979H.002v61.98c0 34.188 27.81 61.978 61.979 61.978" fill="#fff" fill-rule="nonzero"/><path d="M62.091 85.313c11.456 0 20.769-9.312 20.769-20.768 0-11.45-9.313-20.77-20.769-20.77H41.322v20.77c0 11.456 9.32 20.768 20.77 20.768" fill="#53b17b" fill-rule="nonzero"/><path d="M61.985 2.532H41.322v20.581h20.77c22.843 0 41.43 18.588 41.43 41.432 0 22.843-18.587 41.43-41.43 41.43-22.845 0-41.432-18.587-41.432-41.43V2.532H-.002V64.52c0 34.23 27.756 61.98 61.987 61.98s61.98-27.75 61.98-61.98c0-34.232-27.749-61.988-61.98-61.988" fill="#53b17b" fill-rule="nonzero"/><g fill="#4f7cb0" fill-rule="nonzero" stroke="#5f6663" stroke-width=".85"><path d="M985.775 36.289l-6.645-18.951-6.644 18.95h13.289zm3.926 11.25h-21.14l-3.399 9.89h-15.78L971.052.5h16.157l21.67 56.93h-15.78l-3.398-9.891zM1030.17 26.624h4.908c5.439 0 8.152-2.366 8.152-7.097 0-4.732-2.713-7.097-8.152-7.097h-4.908v14.194zm0 30.805h-14.798V.5h23.552c6.394 0 11.29 1.662 14.688 4.984 3.397 3.322 5.096 8.003 5.096 14.043 0 6.04-1.699 10.722-5.096 14.044-3.398 3.322-8.294 4.983-14.688 4.983h-8.754v18.875zM1066.565.5h14.799v56.93h-14.799z" stroke-width="1.0027705"/></g></svg>